# xmcd CD database file
# Copyright (C) 1993-1996 Ti Kan
#
# Track frame offsets:
#	187
#	21840
#	55130
#	73092
#	113815
#
# Disc length: 1900 seconds
#
# Revision: 2
# Processed by: cddbd v1.4PL0 Copyright (c) Steve Scherf et al.
# Submitted via: Gronk 1.4
#
DISCID=3f076a05,4a076a05
DTITLE=George Benson - The Other Side of Abbey Road
DYEAR=1900
DGENRE=blues
TTITLE0=Golden Slumbers/You Never Give Me Your Money
TTITLE1=Because/Come Together
TTITLE2=Oh! Darling
TTITLE3=Here Comes The Sun/I Want You (She's So Heavy)
TTITLE4=Something/Octopus's Garden/ The End
EXTD=
EXTT0=
EXTT1=
EXTT2=
EXTT3=
EXTT4=
PLAYORDER=
